<svg width="36" height="30" viewBox="0 0 36 30" fill="none" xmlns="http://www.w3.org/2000/svg">
<path d="M3.888 13.824C3.408 13.696 2.864 13.44 2.256 13.056C1.648 12.64 1.12 12.128 0.672 11.52C0.224 10.88 0 10.176 0 9.408C0 9.056 0.0639999 8.704 0.192 8.352C0.192 8.32 0.192 8.208 0.192 8.016C0.224 7.824 0.256 7.664 0.288 7.536C0.64 5.936 1.456 4.624 2.736 3.6C4.016 2.544 5.584 1.728 7.44 1.152C9.296 0.576 11.232 0.224 13.248 0.0960002C13.664 0.0640002 14.064 0.0479999 14.448 0.0479999C14.832 0.0159999 15.2 0 15.552 0C17.568 0 19.408 0.144 21.072 0.432C22.736 0.688 24.384 0.96 26.016 1.248C27.648 1.536 29.424 1.712 31.344 1.776C31.76 1.264 32.16 0.896 32.544 0.672C32.96 0.416 33.28 0.272 33.504 0.24C33.6 0.208 33.728 0.192 33.888 0.192C34.208 0.192 34.496 0.272 34.752 0.432C35.008 0.592 35.136 0.8 35.136 1.056C35.136 1.28 35.008 1.52 34.752 1.776C34.528 2 34.208 2.256 33.792 2.544C33.376 2.832 32.944 3.2 32.496 3.648C31.92 4.192 31.392 4.816 30.912 5.52C30.464 6.192 30.24 6.864 30.24 7.536C30.24 8.048 30.368 8.48 30.624 8.832C30.656 8.864 30.672 8.912 30.672 8.976C30.672 9.2 30.544 9.312 30.288 9.312C30.096 9.312 29.904 9.2 29.712 8.976C29.424 8.624 29.28 7.936 29.28 6.912C29.28 6.368 29.344 5.792 29.472 5.184C29.6 4.576 29.792 4.016 30.048 3.504C30.176 3.312 30.288 3.136 30.384 2.976C30.48 2.784 30.592 2.608 30.72 2.448C28.384 2.544 26.096 2.464 23.856 2.208C21.616 1.92 19.36 1.776 17.088 1.776C15.808 1.776 14.336 1.904 12.672 2.16C11.008 2.416 9.376 2.832 7.776 3.408C6.176 3.952 4.8 4.72 3.648 5.712C2.496 6.672 1.76 7.872 1.44 9.312C1.408 9.44 1.376 9.552 1.344 9.648C1.344 9.744 1.344 9.84 1.344 9.936C1.344 10.544 1.52 11.056 1.872 11.472C2.256 11.888 2.688 12.24 3.168 12.528C3.648 12.784 4.016 13.024 4.272 13.248C4.496 13.376 4.608 13.504 4.608 13.632C4.608 13.76 4.528 13.84 4.368 13.872C4.24 13.904 4.08 13.888 3.888 13.824ZM8.64 29.232C8.544 29.232 8.352 29.2 8.064 29.136C7.776 29.072 7.504 28.992 7.248 28.896C6.992 28.8 6.848 28.688 6.816 28.56C6.752 27.92 6.912 27.008 7.296 25.824C7.712 24.64 8.256 23.328 8.928 21.888C9.632 20.448 10.352 19.04 11.088 17.664C10.224 17.76 9.568 17.808 9.12 17.808C8.864 17.808 8.592 17.696 8.304 17.472C8.048 17.248 7.92 16.944 7.92 16.56C7.92 16.24 8.096 15.968 8.448 15.744C8.8 15.488 9.184 15.296 9.6 15.168C10.048 15.04 10.368 14.976 10.56 14.976C10.976 14.976 11.264 15.136 11.424 15.456C11.584 15.744 11.744 15.888 11.904 15.888H12.096C12.576 14.992 12.992 14.192 13.344 13.488C13.728 12.784 14.032 12.224 14.256 11.808C14.512 11.264 14.64 10.816 14.64 10.464C14.64 10.304 14.624 10.192 14.592 10.128C14.592 10.032 14.576 9.952 14.544 9.888C14.608 9.504 14.848 8.992 15.264 8.352C15.68 7.712 16.192 7.072 16.8 6.432C17.408 5.792 18.048 5.264 18.72 4.848C19.424 4.4 20.096 4.176 20.736 4.176C20.928 4.176 21.264 4.256 21.744 4.416C22.224 4.544 22.656 4.768 23.04 5.088C23.424 5.408 23.584 5.824 23.52 6.336C23.296 6.176 23.104 6.096 22.944 6.096C22.08 6.096 21.136 6.56 20.112 7.488C19.088 8.416 18.048 9.632 16.992 11.136C15.936 12.608 14.928 14.176 13.968 15.84C14.512 15.776 15.056 15.712 15.6 15.648C16.144 15.584 16.688 15.504 17.232 15.408C18.384 15.248 19.568 15.088 20.784 14.928C22.032 14.768 23.216 14.688 24.336 14.688C24.528 14.688 24.736 14.72 24.96 14.784C25.184 14.816 25.296 14.896 25.296 15.024C25.296 15.088 25.216 15.184 25.056 15.312C24.928 15.408 24.672 15.536 24.288 15.696C23.776 15.888 22.88 16.096 21.6 16.32C20.32 16.544 18.896 16.768 17.328 16.992C15.792 17.184 14.336 17.36 12.96 17.52C12.16 19.024 11.44 20.448 10.8 21.792C10.16 23.104 9.68 24.16 9.36 24.96C9.232 25.28 9.136 25.568 9.072 25.824C9.008 26.08 8.976 26.288 8.976 26.448C8.976 26.896 9.136 27.12 9.456 27.12C9.68 27.12 9.92 27.04 10.176 26.88C10.432 26.688 10.672 26.464 10.896 26.208C11.248 25.792 11.568 25.408 11.856 25.056C12.144 24.672 12.4 24.512 12.624 24.576C12.656 24.608 12.672 24.656 12.672 24.72C12.672 24.912 12.576 25.136 12.384 25.392C12.192 25.648 12.08 25.792 12.048 25.824C11.792 26.144 11.472 26.576 11.088 27.12C10.736 27.664 10.352 28.144 9.936 28.56C9.52 29.008 9.088 29.232 8.64 29.232Z" fill="black"/>
</svg>
